# xmcd CD database file
#
# Track frame offsets:
#	152
#	18245
#	36075
#
# Disc length: 717 seconds
#
# Revision: 4
# Processed by: cddbd v1.5.2PL0 Copyright (c) Steve Scherf et al.
# Submitted via: CDex 1.51
#
DISCID=1802cb03
DTITLE=Chris De Burgh - Riding On A Rainbow
DYEAR=1996
DGENRE=Pop
TTITLE0=RIDING ON A RAINBOW
TTITLE1=MISSING YOU
TTITLE2=SHINE ON
EXTD=YEAR: 1996
EXTT0=
EXTT1=
EXTT2=
PLAYORDER=
